<?xml version="1.0" standalone="no"?>
<!DOCTYPE svg PUBLIC "-//W3C//DTD SVG 20010904//EN"
 "http://www.w3.org/TR/2001/REC-SVG-20010904/DTD/svg10.dtd">
<svg version="1.0" xmlns="http://www.w3.org/2000/svg"
 width="725.000000pt" height="725.000000pt" viewBox="0 0 725.000000 725.000000"
 preserveAspectRatio="xMidYMid meet">
<metadata>
Created by potrace 1.11, written by Peter Selinger 2001-2013
</metadata>
<g transform="translate(0.000000,725.000000) scale(0.100000,-0.100000)"
fill="#000000" stroke="none">
<path d="M5490 7075 l0 -175 -175 0 -175 0 0 -205 0 -205 175 0 175 0 0 -175
0 -175 205 0 205 0 0 175 0 175 175 0 175 0 0 205 0 205 -175 0 -175 0 0 175
0 175 -205 0 -205 0 0 -175z"/>
<path d="M3063 6705 c-227 -29 -487 -92 -700 -170 -154 -57 -425 -195 -573
-292 -541 -357 -935 -854 -1152 -1458 -104 -289 -157 -579 -165 -912 -13 -508
72 -902 292 -1348 206 -420 501 -774 885 -1064 272 -205 574 -359 869 -442 57
-16 107 -29 109 -29 3 0 -84 45 -194 99 -328 164 -572 337 -810 575 -366 366
-605 789 -729 1289 -148 597 -90 1198 170 1777 309 689 911 1234 1626 1474
503 168 1054 191 1562 66 296 -72 594 -195 829 -341 52 -32 80 -44 83 -36 16
43 75 222 75 228 0 11 -215 151 -334 217 -308 172 -661 293 -1031 353 -170 28
-638 36 -812 14z"/>
<path d="M4000 6014 c-205 -55 -339 -265 -301 -472 32 -176 171 -312 349 -343
267 -47 522 210 473 478 -46 250 -281 401 -521 337z"/>
<path d="M5608 5989 c-24 -68 -130 -272 -183 -352 -64 -97 -146 -191 -239
-276 -243 -220 -590 -341 -941 -329 -122 4 -132 6 -170 32 -215 149 -460 165
-702 46 -363 -178 -775 -713 -1103 -1430 -103 -224 -103 -224 21 -40 486 724
1031 1227 1296 1197 61 -7 78 -26 76 -84 -5 -124 -195 -411 -534 -803 -168
-195 -208 -247 -259 -343 -37 -67 -74 -182 -68 -205 2 -6 -60 -42 -137 -81
-168 -85 -278 -166 -405 -297 -243 -252 -373 -542 -414 -922 -6 -61 10 -52 18
11 16 121 110 350 199 482 209 311 510 512 887 592 119 25 392 25 509 0 440
-94 778 -352 975 -745 50 -100 101 -257 120 -371 21 -122 21 -340 0 -462 -62
-369 -292 -720 -600 -915 -34 -22 -70 -45 -80 -51 -35 -23 60 17 135 58 388
209 660 570 752 999 19 88 23 136 24 300 0 209 -9 277 -62 444 -139 445 -479
796 -921 950 -107 37 -287 76 -352 76 -37 0 -38 1 -45 40 -15 89 45 248 147
385 75 101 313 336 458 451 189 150 191 151 289 158 265 21 542 112 740 243
280 187 475 492 551 862 20 101 47 398 36 408 -3 4 -11 -9 -18 -28z"/>
<path d="M6065 5848 c12 -35 26 -78 30 -97 l7 -34 -46 38 c-25 20 -46 35 -46
31 0 -3 23 -34 51 -68 160 -199 328 -489 439 -759 118 -286 186 -552 232 -899
17 -128 17 -604 0 -740 -89 -717 -396 -1344 -907 -1855 -490 -490 -1101 -797
-1805 -907 -128 -20 -182 -22 -460 -22 -272 0 -334 3 -450 21 -761 120 -1379
423 -1880 923 -642 640 -991 1463 -990 2338 0 201 12 339 55 622 9 61 -44
-111 -71 -230 -58 -257 -68 -361 -68 -690 -1 -200 4 -341 12 -410 209 -1627
1441 -2853 3092 -3077 188 -25 678 -25 860 0 762 107 1428 426 1952 935 561
545 905 1234 1013 2032 23 164 30 516 16 691 -59 693 -322 1346 -767 1904 -72
90 -269 307 -284 313 -4 2 2 -25 15 -60z"/>
<path d="M5690 5719 c0 -2 -10 -54 -23 -115 l-22 -111 88 -99 c307 -343 529
-758 642 -1199 40 -153 44 -125 15 79 -75 510 -298 983 -662 1406 -21 24 -38
42 -38 39z"/>
<path d="M3037 3099 c-138 -20 -284 -69 -407 -136 -142 -77 -303 -220 -389
-344 l-44 -64 84 83 c109 107 203 176 316 235 661 341 1458 21 1693 -681 122
-365 50 -806 -182 -1111 -62 -82 -60 -86 7 -16 155 161 251 344 302 577 14 63
18 123 17 253 -1 156 -3 179 -32 287 -145 552 -641 933 -1204 927 -57 -1 -129
-5 -161 -10z"/>
<path d="M3018 2570 c-371 -63 -649 -370 -675 -747 -17 -263 103 -533 308
-688 82 -62 223 -128 319 -150 104 -24 272 -22 371 4 295 76 515 297 590 589
26 104 26 281 -1 388 -26 105 -96 244 -163 324 -177 214 -476 326 -749 280z"/>
</g>
</svg>
